# Blender 5.2.1 LTS
# www.blender.org
mtllib projeto28.mtl
g IfcBuildingElementProxy/SS02_5/40
v -18.000000 -7.000000 12.000000
v -18.000000 -7.000000 -12.000000
v 18.000000 -7.000000 -12.000000
v -18.000000 -3.500000 12.000000
v 18.000000 -7.000000 12.000000
v 18.000000 -3.500000 12.000000
v 18.000000 -3.500000 -12.000000
v -18.000000 -3.500000 -12.000000
vn -0.0000 -1.0000 -0.0000
vn -0.0000 -0.0000 1.0000
vn 1.0000 -0.0000 -0.0000
vn -0.0000 -0.0000 -1.0000
vn -1.0000 -0.0000 -0.0000
vn -0.0000 1.0000 -0.0000
s 0
g off
f 1//1 2//1 3//1
f 4//2 1//2 5//2
f 6//3 5//3 3//3
f 7//4 3//4 2//4
f 8//5 2//5 1//5
f 8//6 4//6 6//6
f 3//1 5//1 1//1
f 5//2 6//2 4//2
f 3//3 7//3 6//3
f 2//4 8//4 7//4
f 1//5 4//5 8//5
f 6//6 7//6 8//6
g IfcBuildingElementProxy/TER_5/102
v -18.000000 0.000000 12.000000
v -18.000000 0.000000 -12.000000
v 18.000000 0.000000 -12.000000
v -18.000000 4.000000 12.000000
v 18.000000 0.000000 12.000000
v 18.000000 4.000000 12.000000
v 18.000000 4.000000 -12.000000
v -18.000000 4.000000 -12.000000
vn -0.0000 -1.0000 -0.0000
vn -0.0000 -0.0000 1.0000
vn 1.0000 -0.0000 -0.0000
vn -0.0000 -0.0000 -1.0000
vn -1.0000 -0.0000 -0.0000
vn -0.0000 1.0000 -0.0000
s 0
g off
f 9//7 10//7 11//7
f 12//8 9//8 13//8
f 14//9 13//9 11//9
f 15//10 11//10 10//10
f 16//11 10//11 9//11
f 16//12 12//12 14//12
f 11//7 13//7 9//7
f 13//8 14//8 12//8
f 11//9 15//9 14//9
f 10//10 16//10 15//10
f 9//11 12//11 16//11
f 14//12 15//12 16//12
g IfcBuildingElementProxy/SS01_5/71
v -18.000000 -3.500000 12.000000
v -18.000000 -3.500000 -12.000000
v 18.000000 -3.500000 -12.000000
v -18.000000 0.000000 12.000000
v 18.000000 -3.500000 12.000000
v 18.000000 0.000000 12.000000
v 18.000000 0.000000 -12.000000
v -18.000000 0.000000 -12.000000
vn -0.0000 -1.0000 -0.0000
vn -0.0000 -0.0000 1.0000
vn 1.0000 -0.0000 -0.0000
vn -0.0000 -0.0000 -1.0000
vn -1.0000 -0.0000 -0.0000
vn -0.0000 1.0000 -0.0000
s 0
g off
f 17//13 18//13 19//13
f 20//14 17//14 21//14
f 22//15 21//15 19//15
f 23//16 19//16 18//16
f 24//17 18//17 17//17
f 24//18 20//18 22//18
f 19//13 21//13 17//13
f 21//14 22//14 20//14
f 19//15 23//15 22//15
f 18//16 24//16 23//16
f 17//17 20//17 24//17
f 22//18 23//18 24//18
g IfcBuildingElementProxy/T01_5/164
v -14.000000 7.500000 9.000000
v -14.000000 7.500000 -9.000000
v 14.000000 7.500000 -9.000000
v -14.000000 10.500000 9.000000
v 14.000000 7.500000 9.000000
v 14.000000 10.500000 9.000000
v 14.000000 10.500000 -9.000000
v -14.000000 10.500000 -9.000000
vn -0.0000 -1.0000 -0.0000
vn -0.0000 -0.0000 1.0000
vn 1.0000 -0.0000 -0.0000
vn -0.0000 -0.0000 -1.0000
vn -1.0000 -0.0000 -0.0000
vn -0.0000 1.0000 -0.0000
s 0
g off
f 25//19 26//19 27//19
f 28//20 25//20 29//20
f 30//21 29//21 27//21
f 31//22 27//22 26//22
f 32//23 26//23 25//23
f 32//24 28//24 30//24
f 27//19 29//19 25//19
f 29//20 30//20 28//20
f 27//21 31//21 30//21
f 26//22 32//22 31//22
f 25//23 28//23 32//23
f 30//24 31//24 32//24
g IfcBuildingElementProxy/INT_5/133
v -18.000000 4.000000 12.000000
v -18.000000 4.000000 -12.000000
v 18.000000 4.000000 -12.000000
v -18.000000 7.500000 12.000000
v 18.000000 4.000000 12.000000
v 18.000000 7.500000 12.000000
v 18.000000 7.500000 -12.000000
v -18.000000 7.500000 -12.000000
vn -0.0000 -1.0000 -0.0000
vn -0.0000 -0.0000 1.0000
vn 1.0000 -0.0000 -0.0000
vn -0.0000 -0.0000 -1.0000
vn -1.0000 -0.0000 -0.0000
vn -0.0000 1.0000 -0.0000
s 0
g off
f 33//25 34//25 35//25
f 36//26 33//26 37//26
f 38//27 37//27 35//27
f 39//28 35//28 34//28
f 40//29 34//29 33//29
f 40//30 36//30 38//30
f 35//25 37//25 33//25
f 37//26 38//26 36//26
f 35//27 39//27 38//27
f 34//28 40//28 39//28
f 33//29 36//29 40//29
f 38//30 39//30 40//30
g IfcBuildingElementProxy/T02_5/195
v -14.000000 10.500000 9.000000
v -14.000000 10.500000 -9.000000
v 14.000000 10.500000 -9.000000
v -14.000000 13.500000 9.000000
v 14.000000 10.500000 9.000000
v 14.000000 13.500000 9.000000
v 14.000000 13.500000 -9.000000
v -14.000000 13.500000 -9.000000
vn -0.0000 -1.0000 -0.0000
vn -0.0000 -0.0000 1.0000
vn 1.0000 -0.0000 -0.0000
vn -0.0000 -0.0000 -1.0000
vn -1.0000 -0.0000 -0.0000
vn -0.0000 1.0000 -0.0000
s 0
g off
f 41//31 42//31 43//31
f 44//32 41//32 45//32
f 46//33 45//33 43//33
f 47//34 43//34 42//34
f 48//35 42//35 41//35
f 48//36 44//36 46//36
f 43//31 45//31 41//31
f 45//32 46//32 44//32
f 43//33 47//33 46//33
f 42//34 48//34 47//34
f 41//35 44//35 48//35
f 46//36 47//36 48//36
g IfcBuildingElementProxy/T03_5/226
v -14.000000 13.500000 9.000000
v -14.000000 13.500000 -9.000000
v 14.000000 13.500000 -9.000000
v -14.000000 16.500000 9.000000
v 14.000000 13.500000 9.000000
v 14.000000 16.500000 9.000000
v 14.000000 16.500000 -9.000000
v -14.000000 16.500000 -9.000000
vn -0.0000 -1.0000 -0.0000
vn -0.0000 -0.0000 1.0000
vn 1.0000 -0.0000 -0.0000
vn -0.0000 -0.0000 -1.0000
vn -1.0000 -0.0000 -0.0000
vn -0.0000 1.0000 -0.0000
s 0
g off
f 49//37 50//37 51//37
f 52//38 49//38 53//38
f 54//39 53//39 51//39
f 55//40 51//40 50//40
f 56//41 50//41 49//41
f 56//42 52//42 54//42
f 51//37 53//37 49//37
f 53//38 54//38 52//38
f 51//39 55//39 54//39
f 50//40 56//40 55//40
f 49//41 52//41 56//41
f 54//42 55//42 56//42
g IfcBuildingElementProxy/T06_5/319
v -14.000000 22.500000 9.000000
v -14.000000 22.500000 -9.000000
v 14.000000 22.500000 -9.000000
v -14.000000 25.500000 9.000000
v 14.000000 22.500000 9.000000
v 14.000000 25.500000 9.000000
v 14.000000 25.500000 -9.000000
v -14.000000 25.500000 -9.000000
vn -0.0000 -1.0000 -0.0000
vn -0.0000 -0.0000 1.0000
vn 1.0000 -0.0000 -0.0000
vn -0.0000 -0.0000 -1.0000
vn -1.0000 -0.0000 -0.0000
vn -0.0000 1.0000 -0.0000
s 0
g off
f 57//43 58//43 59//43
f 60//44 57//44 61//44
f 62//45 61//45 59//45
f 63//46 59//46 58//46
f 64//47 58//47 57//47
f 64//48 60//48 62//48
f 59//43 61//43 57//43
f 61//44 62//44 60//44
f 59//45 63//45 62//45
f 58//46 64//46 63//46
f 57//47 60//47 64//47
f 62//48 63//48 64//48
g IfcBuildingElementProxy/T05_5/288
v -14.000000 19.500000 9.000000
v -14.000000 19.500000 -9.000000
v 14.000000 19.500000 -9.000000
v -14.000000 22.500000 9.000000
v 14.000000 19.500000 9.000000
v 14.000000 22.500000 9.000000
v 14.000000 22.500000 -9.000000
v -14.000000 22.500000 -9.000000
vn -0.0000 -1.0000 -0.0000
vn -0.0000 -0.0000 1.0000
vn 1.0000 -0.0000 -0.0000
vn -0.0000 -0.0000 -1.0000
vn -1.0000 -0.0000 -0.0000
vn -0.0000 1.0000 -0.0000
s 0
g off
f 65//49 66//49 67//49
f 68//50 65//50 69//50
f 70//51 69//51 67//51
f 71//52 67//52 66//52
f 72//53 66//53 65//53
f 72//54 68//54 70//54
f 67//49 69//49 65//49
f 69//50 70//50 68//50
f 67//51 71//51 70//51
f 66//52 72//52 71//52
f 65//53 68//53 72//53
f 70//54 71//54 72//54
g IfcBuildingElementProxy/T04_5/257
v -14.000000 16.500000 9.000000
v -14.000000 16.500000 -9.000000
v 14.000000 16.500000 -9.000000
v -14.000000 19.500000 9.000000
v 14.000000 16.500000 9.000000
v 14.000000 19.500000 9.000000
v 14.000000 19.500000 -9.000000
v -14.000000 19.500000 -9.000000
vn -0.0000 -1.0000 -0.0000
vn -0.0000 -0.0000 1.0000
vn 1.0000 -0.0000 -0.0000
vn -0.0000 -0.0000 -1.0000
vn -1.0000 -0.0000 -0.0000
vn -0.0000 1.0000 -0.0000
s 0
g off
f 73//55 74//55 75//55
f 76//56 73//56 77//56
f 78//57 77//57 75//57
f 79//58 75//58 74//58
f 80//59 74//59 73//59
f 80//60 76//60 78//60
f 75//55 77//55 73//55
f 77//56 78//56 76//56
f 75//57 79//57 78//57
f 74//58 80//58 79//58
f 73//59 76//59 80//59
f 78//60 79//60 80//60
g IfcBuildingElementProxy/T08_5/381
v -14.000000 28.500000 9.000000
v -14.000000 28.500000 -9.000000
v 14.000000 28.500000 -9.000000
v -14.000000 31.500000 9.000000
v 14.000000 28.500000 9.000000
v 14.000000 31.500000 9.000000
v 14.000000 31.500000 -9.000000
v -14.000000 31.500000 -9.000000
vn -0.0000 -1.0000 -0.0000
vn -0.0000 -0.0000 1.0000
vn 1.0000 -0.0000 -0.0000
vn -0.0000 -0.0000 -1.0000
vn -1.0000 -0.0000 -0.0000
vn -0.0000 1.0000 -0.0000
s 0
g off
f 81//61 82//61 83//61
f 84//62 81//62 85//62
f 86//63 85//63 83//63
f 87//64 83//64 82//64
f 88//65 82//65 81//65
f 88//66 84//66 86//66
f 83//61 85//61 81//61
f 85//62 86//62 84//62
f 83//63 87//63 86//63
f 82//64 88//64 87//64
f 81//65 84//65 88//65
f 86//66 87//66 88//66
g IfcBuildingElementProxy/T07_5/350
v -14.000000 25.500000 9.000000
v -14.000000 25.500000 -9.000000
v 14.000000 25.500000 -9.000000
v -14.000000 28.500000 9.000000
v 14.000000 25.500000 9.000000
v 14.000000 28.500000 9.000000
v 14.000000 28.500000 -9.000000
v -14.000000 28.500000 -9.000000
vn -0.0000 -1.0000 -0.0000
vn -0.0000 -0.0000 1.0000
vn 1.0000 -0.0000 -0.0000
vn -0.0000 -0.0000 -1.0000
vn -1.0000 -0.0000 -0.0000
vn -0.0000 1.0000 -0.0000
s 0
g off
f 89//67 90//67 91//67
f 92//68 89//68 93//68
f 94//69 93//69 91//69
f 95//70 91//70 90//70
f 96//71 90//71 89//71
f 96//72 92//72 94//72
f 91//67 93//67 89//67
f 93//68 94//68 92//68
f 91//69 95//69 94//69
f 90//70 96//70 95//70
f 89//71 92//71 96//71
f 94//72 95//72 96//72
g IfcBuildingElementProxy/T09_5/412
v -14.000000 31.500000 9.000000
v -14.000000 31.500000 -9.000000
v 14.000000 31.500000 -9.000000
v -14.000000 34.500000 9.000000
v 14.000000 31.500000 9.000000
v 14.000000 34.500000 9.000000
v 14.000000 34.500000 -9.000000
v -14.000000 34.500000 -9.000000
vn -0.0000 -1.0000 -0.0000
vn -0.0000 -0.0000 1.0000
vn 1.0000 -0.0000 -0.0000
vn -0.0000 -0.0000 -1.0000
vn -1.0000 -0.0000 -0.0000
vn -0.0000 1.0000 -0.0000
s 0
g off
f 97//73 98//73 99//73
f 100//74 97//74 101//74
f 102//75 101//75 99//75
f 103//76 99//76 98//76
f 104//77 98//77 97//77
f 104//78 100//78 102//78
f 99//73 101//73 97//73
f 101//74 102//74 100//74
f 99//75 103//75 102//75
f 98//76 104//76 103//76
f 97//77 100//77 104//77
f 102//78 103//78 104//78
g IfcBuildingElementProxy/T10_5/443
v -14.000000 34.500000 9.000000
v -14.000000 34.500000 -9.000000
v 14.000000 34.500000 -9.000000
v -14.000000 37.500000 9.000000
v 14.000000 34.500000 9.000000
v 14.000000 37.500000 9.000000
v 14.000000 37.500000 -9.000000
v -14.000000 37.500000 -9.000000
vn -0.0000 -1.0000 -0.0000
vn -0.0000 -0.0000 1.0000
vn 1.0000 -0.0000 -0.0000
vn -0.0000 -0.0000 -1.0000
vn -1.0000 -0.0000 -0.0000
vn -0.0000 1.0000 -0.0000
s 0
g off
f 105//79 106//79 107//79
f 108//80 105//80 109//80
f 110//81 109//81 107//81
f 111//82 107//82 106//82
f 112//83 106//83 105//83
f 112//84 108//84 110//84
f 107//79 109//79 105//79
f 109//80 110//80 108//80
f 107//81 111//81 110//81
f 106//82 112//82 111//82
f 105//83 108//83 112//83
f 110//84 111//84 112//84
g IfcBuildingElementProxy/T12_5/505
v -14.000000 40.500000 9.000000
v -14.000000 40.500000 -9.000000
v 14.000000 40.500000 -9.000000
v -14.000000 43.500000 9.000000
v 14.000000 40.500000 9.000000
v 14.000000 43.500000 9.000000
v 14.000000 43.500000 -9.000000
v -14.000000 43.500000 -9.000000
vn -0.0000 -1.0000 -0.0000
vn -0.0000 -0.0000 1.0000
vn 1.0000 -0.0000 -0.0000
vn -0.0000 -0.0000 -1.0000
vn -1.0000 -0.0000 -0.0000
vn -0.0000 1.0000 -0.0000
s 0
g off
f 113//85 114//85 115//85
f 116//86 113//86 117//86
f 118//87 117//87 115//87
f 119//88 115//88 114//88
f 120//89 114//89 113//89
f 120//90 116//90 118//90
f 115//85 117//85 113//85
f 117//86 118//86 116//86
f 115//87 119//87 118//87
f 114//88 120//88 119//88
f 113//89 116//89 120//89
f 118//90 119//90 120//90
g IfcBuildingElementProxy/T13_5/536
v -14.000000 43.500000 9.000000
v -14.000000 43.500000 -9.000000
v 14.000000 43.500000 -9.000000
v -14.000000 46.500000 9.000000
v 14.000000 43.500000 9.000000
v 14.000000 46.500000 9.000000
v 14.000000 46.500000 -9.000000
v -14.000000 46.500000 -9.000000
vn -0.0000 -1.0000 -0.0000
vn -0.0000 -0.0000 1.0000
vn 1.0000 -0.0000 -0.0000
vn -0.0000 -0.0000 -1.0000
vn -1.0000 -0.0000 -0.0000
vn -0.0000 1.0000 -0.0000
s 0
g off
f 121//91 122//91 123//91
f 124//92 121//92 125//92
f 126//93 125//93 123//93
f 127//94 123//94 122//94
f 128//95 122//95 121//95
f 128//96 124//96 126//96
f 123//91 125//91 121//91
f 125//92 126//92 124//92
f 123//93 127//93 126//93
f 122//94 128//94 127//94
f 121//95 124//95 128//95
f 126//96 127//96 128//96
g IfcBuildingElementProxy/T14_5/567
v -14.000000 46.500000 9.000000
v -14.000000 46.500000 -9.000000
v 14.000000 46.500000 -9.000000
v -14.000000 49.500000 9.000000
v 14.000000 46.500000 9.000000
v 14.000000 49.500000 9.000000
v 14.000000 49.500000 -9.000000
v -14.000000 49.500000 -9.000000
vn -0.0000 -1.0000 -0.0000
vn -0.0000 -0.0000 1.0000
vn 1.0000 -0.0000 -0.0000
vn -0.0000 -0.0000 -1.0000
vn -1.0000 -0.0000 -0.0000
vn -0.0000 1.0000 -0.0000
s 0
g off
f 129//97 130//97 131//97
f 132//98 129//98 133//98
f 134//99 133//99 131//99
f 135//100 131//100 130//100
f 136//101 130//101 129//101
f 136//102 132//102 134//102
f 131//97 133//97 129//97
f 133//98 134//98 132//98
f 131//99 135//99 134//99
f 130//100 136//100 135//100
f 129//101 132//101 136//101
f 134//102 135//102 136//102
g IfcBuildingElementProxy/T15_5/598
v -14.000000 49.500000 9.000000
v -14.000000 49.500000 -9.000000
v 14.000000 49.500000 -9.000000
v -14.000000 52.500000 9.000000
v 14.000000 49.500000 9.000000
v 14.000000 52.500000 9.000000
v 14.000000 52.500000 -9.000000
v -14.000000 52.500000 -9.000000
vn -0.0000 -1.0000 -0.0000
vn -0.0000 -0.0000 1.0000
vn 1.0000 -0.0000 -0.0000
vn -0.0000 -0.0000 -1.0000
vn -1.0000 -0.0000 -0.0000
vn -0.0000 1.0000 -0.0000
s 0
g off
f 137//103 138//103 139//103
f 140//104 137//104 141//104
f 142//105 141//105 139//105
f 143//106 139//106 138//106
f 144//107 138//107 137//107
f 144//108 140//108 142//108
f 139//103 141//103 137//103
f 141//104 142//104 140//104
f 139//105 143//105 142//105
f 138//106 144//106 143//106
f 137//107 140//107 144//107
f 142//108 143//108 144//108
g IfcBuildingElementProxy/T11_5/474
v -14.000000 37.500000 9.000000
v -14.000000 37.500000 -9.000000
v 14.000000 37.500000 -9.000000
v -14.000000 40.500000 9.000000
v 14.000000 37.500000 9.000000
v 14.000000 40.500000 9.000000
v 14.000000 40.500000 -9.000000
v -14.000000 40.500000 -9.000000
vn -0.0000 -1.0000 -0.0000
vn -0.0000 -0.0000 1.0000
vn 1.0000 -0.0000 -0.0000
vn -0.0000 -0.0000 -1.0000
vn -1.0000 -0.0000 -0.0000
vn -0.0000 1.0000 -0.0000
s 0
g off
f 145//109 146//109 147//109
f 148//110 145//110 149//110
f 150//111 149//111 147//111
f 151//112 147//112 146//112
f 152//113 146//113 145//113
f 152//114 148//114 150//114
f 147//109 149//109 145//109
f 149//110 150//110 148//110
f 147//111 151//111 150//111
f 146//112 152//112 151//112
f 145//113 148//113 152//113
f 150//114 151//114 152//114
g IfcBuildingElementProxy/T16_5/629
v -14.000000 52.500000 9.000000
v -14.000000 52.500000 -9.000000
v 14.000000 52.500000 -9.000000
v -14.000000 55.500000 9.000000
v 14.000000 52.500000 9.000000
v 14.000000 55.500000 9.000000
v 14.000000 55.500000 -9.000000
v -14.000000 55.500000 -9.000000
vn -0.0000 -1.0000 -0.0000
vn -0.0000 -0.0000 1.0000
vn 1.0000 -0.0000 -0.0000
vn -0.0000 -0.0000 -1.0000
vn -1.0000 -0.0000 -0.0000
vn -0.0000 1.0000 -0.0000
s 0
g off
f 153//115 154//115 155//115
f 156//116 153//116 157//116
f 158//117 157//117 155//117
f 159//118 155//118 154//118
f 160//119 154//119 153//119
f 160//120 156//120 158//120
f 155//115 157//115 153//115
f 157//116 158//116 156//116
f 155//117 159//117 158//117
f 154//118 160//118 159//118
f 153//119 156//119 160//119
f 158//120 159//120 160//120
g IfcBuildingElementProxy/T17_5/660
v -14.000000 55.500000 9.000000
v -14.000000 55.500000 -9.000000
v 14.000000 55.500000 -9.000000
v -14.000000 58.500000 9.000000
v 14.000000 55.500000 9.000000
v 14.000000 58.500000 9.000000
v 14.000000 58.500000 -9.000000
v -14.000000 58.500000 -9.000000
vn -0.0000 -1.0000 -0.0000
vn -0.0000 -0.0000 1.0000
vn 1.0000 -0.0000 -0.0000
vn -0.0000 -0.0000 -1.0000
vn -1.0000 -0.0000 -0.0000
vn -0.0000 1.0000 -0.0000
s 0
g off
f 161//121 162//121 163//121
f 164//122 161//122 165//122
f 166//123 165//123 163//123
f 167//124 163//124 162//124
f 168//125 162//125 161//125
f 168//126 164//126 166//126
f 163//121 165//121 161//121
f 165//122 166//122 164//122
f 163//123 167//123 166//123
f 162//124 168//124 167//124
f 161//125 164//125 168//125
f 166//126 167//126 168//126
g IfcBuildingElementProxy/T19_5/722
v -14.000000 61.500000 9.000000
v -14.000000 61.500000 -9.000000
v 14.000000 61.500000 -9.000000
v -14.000000 64.500000 9.000000
v 14.000000 61.500000 9.000000
v 14.000000 64.500000 9.000000
v 14.000000 64.500000 -9.000000
v -14.000000 64.500000 -9.000000
vn -0.0000 -1.0000 -0.0000
vn -0.0000 -0.0000 1.0000
vn 1.0000 -0.0000 -0.0000
vn -0.0000 -0.0000 -1.0000
vn -1.0000 -0.0000 -0.0000
vn -0.0000 1.0000 -0.0000
s 0
g off
f 169//127 170//127 171//127
f 172//128 169//128 173//128
f 174//129 173//129 171//129
f 175//130 171//130 170//130
f 176//131 170//131 169//131
f 176//132 172//132 174//132
f 171//127 173//127 169//127
f 173//128 174//128 172//128
f 171//129 175//129 174//129
f 170//130 176//130 175//130
f 169//131 172//131 176//131
f 174//132 175//132 176//132
g IfcBuildingElementProxy/T20_5/753
v -14.000000 64.500000 9.000000
v -14.000000 64.500000 -9.000000
v 14.000000 64.500000 -9.000000
v -14.000000 67.500000 9.000000
v 14.000000 64.500000 9.000000
v 14.000000 67.500000 9.000000
v 14.000000 67.500000 -9.000000
v -14.000000 67.500000 -9.000000
vn -0.0000 -1.0000 -0.0000
vn -0.0000 -0.0000 1.0000
vn 1.0000 -0.0000 -0.0000
vn -0.0000 -0.0000 -1.0000
vn -1.0000 -0.0000 -0.0000
vn -0.0000 1.0000 -0.0000
s 0
g off
f 177//133 178//133 179//133
f 180//134 177//134 181//134
f 182//135 181//135 179//135
f 183//136 179//136 178//136
f 184//137 178//137 177//137
f 184//138 180//138 182//138
f 179//133 181//133 177//133
f 181//134 182//134 180//134
f 179//135 183//135 182//135
f 178//136 184//136 183//136
f 177//137 180//137 184//137
f 182//138 183//138 184//138
g IfcBuildingElementProxy/T21_5/784
v -14.000000 67.500000 9.000000
v -14.000000 67.500000 -9.000000
v 14.000000 67.500000 -9.000000
v -14.000000 70.500000 9.000000
v 14.000000 67.500000 9.000000
v 14.000000 70.500000 9.000000
v 14.000000 70.500000 -9.000000
v -14.000000 70.500000 -9.000000
vn -0.0000 -1.0000 -0.0000
vn -0.0000 -0.0000 1.0000
vn 1.0000 -0.0000 -0.0000
vn -0.0000 -0.0000 -1.0000
vn -1.0000 -0.0000 -0.0000
vn -0.0000 1.0000 -0.0000
s 0
g off
f 185//139 186//139 187//139
f 188//140 185//140 189//140
f 190//141 189//141 187//141
f 191//142 187//142 186//142
f 192//143 186//143 185//143
f 192//144 188//144 190//144
f 187//139 189//139 185//139
f 189//140 190//140 188//140
f 187//141 191//141 190//141
f 186//142 192//142 191//142
f 185//143 188//143 192//143
f 190//144 191//144 192//144
g IfcBuildingElementProxy/T18_5/691
v -14.000000 58.500000 9.000000
v -14.000000 58.500000 -9.000000
v 14.000000 58.500000 -9.000000
v -14.000000 61.500000 9.000000
v 14.000000 58.500000 9.000000
v 14.000000 61.500000 9.000000
v 14.000000 61.500000 -9.000000
v -14.000000 61.500000 -9.000000
vn -0.0000 -1.0000 -0.0000
vn -0.0000 -0.0000 1.0000
vn 1.0000 -0.0000 -0.0000
vn -0.0000 -0.0000 -1.0000
vn -1.0000 -0.0000 -0.0000
vn -0.0000 1.0000 -0.0000
s 0
g off
f 193//145 194//145 195//145
f 196//146 193//146 197//146
f 198//147 197//147 195//147
f 199//148 195//148 194//148
f 200//149 194//149 193//149
f 200//150 196//150 198//150
f 195//145 197//145 193//145
f 197//146 198//146 196//146
f 195//147 199//147 198//147
f 194//148 200//148 199//148
f 193//149 196//149 200//149
f 198//150 199//150 200//150
g IfcBuildingElementProxy/T25_5/908
v -14.000000 79.500000 9.000000
v -14.000000 79.500000 -9.000000
v 14.000000 79.500000 -9.000000
v -14.000000 82.500000 9.000000
v 14.000000 79.500000 9.000000
v 14.000000 82.500000 9.000000
v 14.000000 82.500000 -9.000000
v -14.000000 82.500000 -9.000000
vn -0.0000 -1.0000 -0.0000
vn -0.0000 -0.0000 1.0000
vn 1.0000 -0.0000 -0.0000
vn -0.0000 -0.0000 -1.0000
vn -1.0000 -0.0000 -0.0000
vn -0.0000 1.0000 -0.0000
s 0
g off
f 201//151 202//151 203//151
f 204//152 201//152 205//152
f 206//153 205//153 203//153
f 207//154 203//154 202//154
f 208//155 202//155 201//155
f 208//156 204//156 206//156
f 203//151 205//151 201//151
f 205//152 206//152 204//152
f 203//153 207//153 206//153
f 202//154 208//154 207//154
f 201//155 204//155 208//155
f 206//156 207//156 208//156
g IfcBuildingElementProxy/T22_5/815
v -14.000000 70.500000 9.000000
v -14.000000 70.500000 -9.000000
v 14.000000 70.500000 -9.000000
v -14.000000 73.500000 9.000000
v 14.000000 70.500000 9.000000
v 14.000000 73.500000 9.000000
v 14.000000 73.500000 -9.000000
v -14.000000 73.500000 -9.000000
vn -0.0000 -1.0000 -0.0000
vn -0.0000 -0.0000 1.0000
vn 1.0000 -0.0000 -0.0000
vn -0.0000 -0.0000 -1.0000
vn -1.0000 -0.0000 -0.0000
vn -0.0000 1.0000 -0.0000
s 0
g off
f 209//157 210//157 211//157
f 212//158 209//158 213//158
f 214//159 213//159 211//159
f 215//160 211//160 210//160
f 216//161 210//161 209//161
f 216//162 212//162 214//162
f 211//157 213//157 209//157
f 213//158 214//158 212//158
f 211//159 215//159 214//159
f 210//160 216//160 215//160
f 209//161 212//161 216//161
f 214//162 215//162 216//162
g IfcBuildingElementProxy/T28_5/1001
v -14.000000 88.500000 9.000000
v -14.000000 88.500000 -9.000000
v 14.000000 88.500000 -9.000000
v -14.000000 91.500000 9.000000
v 14.000000 88.500000 9.000000
v 14.000000 91.500000 9.000000
v 14.000000 91.500000 -9.000000
v -14.000000 91.500000 -9.000000
vn -0.0000 -1.0000 -0.0000
vn -0.0000 -0.0000 1.0000
vn 1.0000 -0.0000 -0.0000
vn -0.0000 -0.0000 -1.0000
vn -1.0000 -0.0000 -0.0000
vn -0.0000 1.0000 -0.0000
s 0
g off
f 217//163 218//163 219//163
f 220//164 217//164 221//164
f 222//165 221//165 219//165
f 223//166 219//166 218//166
f 224//167 218//167 217//167
f 224//168 220//168 222//168
f 219//163 221//163 217//163
f 221//164 222//164 220//164
f 219//165 223//165 222//165
f 218//166 224//166 223//166
f 217//167 220//167 224//167
f 222//168 223//168 224//168
g IfcBuildingElementProxy/T26_5/939
v -14.000000 82.500000 9.000000
v -14.000000 82.500000 -9.000000
v 14.000000 82.500000 -9.000000
v -14.000000 85.500000 9.000000
v 14.000000 82.500000 9.000000
v 14.000000 85.500000 9.000000
v 14.000000 85.500000 -9.000000
v -14.000000 85.500000 -9.000000
vn -0.0000 -1.0000 -0.0000
vn -0.0000 -0.0000 1.0000
vn 1.0000 -0.0000 -0.0000
vn -0.0000 -0.0000 -1.0000
vn -1.0000 -0.0000 -0.0000
vn -0.0000 1.0000 -0.0000
s 0
g off
f 225//169 226//169 227//169
f 228//170 225//170 229//170
f 230//171 229//171 227//171
f 231//172 227//172 226//172
f 232//173 226//173 225//173
f 232//174 228//174 230//174
f 227//169 229//169 225//169
f 229//170 230//170 228//170
f 227//171 231//171 230//171
f 226//172 232//172 231//172
f 225//173 228//173 232//173
f 230//174 231//174 232//174
g IfcBuildingElementProxy/T27_5/970
v -14.000000 85.500000 9.000000
v -14.000000 85.500000 -9.000000
v 14.000000 85.500000 -9.000000
v -14.000000 88.500000 9.000000
v 14.000000 85.500000 9.000000
v 14.000000 88.500000 9.000000
v 14.000000 88.500000 -9.000000
v -14.000000 88.500000 -9.000000
vn -0.0000 -1.0000 -0.0000
vn -0.0000 -0.0000 1.0000
vn 1.0000 -0.0000 -0.0000
vn -0.0000 -0.0000 -1.0000
vn -1.0000 -0.0000 -0.0000
vn -0.0000 1.0000 -0.0000
s 0
g off
f 233//175 234//175 235//175
f 236//176 233//176 237//176
f 238//177 237//177 235//177
f 239//178 235//178 234//178
f 240//179 234//179 233//179
f 240//180 236//180 238//180
f 235//175 237//175 233//175
f 237//176 238//176 236//176
f 235//177 239//177 238//177
f 234//178 240//178 239//178
f 233//179 236//179 240//179
f 238//180 239//180 240//180
g IfcBuildingElementProxy/T23_5/846
v -14.000000 73.500000 9.000000
v -14.000000 73.500000 -9.000000
v 14.000000 73.500000 -9.000000
v -14.000000 76.500000 9.000000
v 14.000000 73.500000 9.000000
v 14.000000 76.500000 9.000000
v 14.000000 76.500000 -9.000000
v -14.000000 76.500000 -9.000000
vn -0.0000 -1.0000 -0.0000
vn -0.0000 -0.0000 1.0000
vn 1.0000 -0.0000 -0.0000
vn -0.0000 -0.0000 -1.0000
vn -1.0000 -0.0000 -0.0000
vn -0.0000 1.0000 -0.0000
s 0
g off
f 241//181 242//181 243//181
f 244//182 241//182 245//182
f 246//183 245//183 243//183
f 247//184 243//184 242//184
f 248//185 242//185 241//185
f 248//186 244//186 246//186
f 243//181 245//181 241//181
f 245//182 246//182 244//182
f 243//183 247//183 246//183
f 242//184 248//184 247//184
f 241//185 244//185 248//185
f 246//186 247//186 248//186
g IfcBuildingElementProxy/T24_5/877
v -14.000000 76.500000 9.000000
v -14.000000 76.500000 -9.000000
v 14.000000 76.500000 -9.000000
v -14.000000 79.500000 9.000000
v 14.000000 76.500000 9.000000
v 14.000000 79.500000 9.000000
v 14.000000 79.500000 -9.000000
v -14.000000 79.500000 -9.000000
vn -0.0000 -1.0000 -0.0000
vn -0.0000 -0.0000 1.0000
vn 1.0000 -0.0000 -0.0000
vn -0.0000 -0.0000 -1.0000
vn -1.0000 -0.0000 -0.0000
vn -0.0000 1.0000 -0.0000
s 0
g off
f 249//187 250//187 251//187
f 252//188 249//188 253//188
f 254//189 253//189 251//189
f 255//190 251//190 250//190
f 256//191 250//191 249//191
f 256//192 252//192 254//192
f 251//187 253//187 249//187
f 253//188 254//188 252//188
f 251//189 255//189 254//189
f 250//190 256//190 255//190
f 249//191 252//191 256//191
f 254//192 255//192 256//192
g IfcBuildingElementProxy/ATC_5/1032
v -12.000000 91.500000 7.000000
v -12.000000 91.500000 -7.000000
v 12.000000 91.500000 -7.000000
v -12.000000 94.500000 7.000000
v 12.000000 91.500000 7.000000
v 12.000000 94.500000 7.000000
v 12.000000 94.500000 -7.000000
v -12.000000 94.500000 -7.000000
vn -0.0000 -1.0000 -0.0000
vn -0.0000 -0.0000 1.0000
vn 1.0000 -0.0000 -0.0000
vn -0.0000 -0.0000 -1.0000
vn -1.0000 -0.0000 -0.0000
vn -0.0000 1.0000 -0.0000
s 0
g off
f 257//193 258//193 259//193
f 260//194 257//194 261//194
f 262//195 261//195 259//195
f 263//196 259//196 258//196
f 264//197 258//197 257//197
f 264//198 260//198 262//198
f 259//193 261//193 257//193
f 261//194 262//194 260//194
f 259//195 263//195 262//195
f 258//196 264//196 263//196
f 257//197 260//197 264//197
f 262//198 263//198 264//198
