{
	"asset":{
		"generator":"Khronos glTF Blender I/O v5.2.40",
		"version":"2.0"
	},
	"scene":0,
	"scenes":[
		{
			"name":"Scene",
			"nodes":[
				0,
				1,
				2,
				3,
				4,
				5,
				6,
				7,
				8,
				9,
				10,
				11,
				12,
				13,
				14,
				15,
				16,
				17,
				18,
				19,
				20,
				21,
				22,
				23,
				24,
				25,
				26,
				27,
				28,
				29,
				30,
				31,
				32,
				33,
				34,
				35,
				36,
				37,
				38,
				39,
				40,
				41,
				42,
				43,
				44,
				45,
				46,
				47,
				48,
				49,
				50,
				51,
				52,
				53,
				54,
				55,
				56,
				57,
				58,
				59,
				60,
				61,
				62,
				63,
				64,
				65,
				66,
				67,
				68
			]
		}
	],
	"nodes":[
		{
			"name":"IfcBuilding/EDIFICIO"
		},
		{
			"mesh":0,
			"name":"IfcBuildingElementProxy/ATC",
			"translation":[
				0,
				91.5,
				0
			]
		},
		{
			"mesh":1,
			"name":"IfcBuildingElementProxy/INT",
			"translation":[
				0,
				4,
				0
			]
		},
		{
			"mesh":2,
			"name":"IfcBuildingElementProxy/SS01",
			"translation":[
				0,
				-3.5,
				0
			]
		},
		{
			"mesh":3,
			"name":"IfcBuildingElementProxy/SS02",
			"translation":[
				0,
				-7,
				0
			]
		},
		{
			"mesh":4,
			"name":"IfcBuildingElementProxy/T01",
			"translation":[
				0,
				7.5,
				0
			]
		},
		{
			"mesh":5,
			"name":"IfcBuildingElementProxy/T02",
			"translation":[
				0,
				10.5,
				0
			]
		},
		{
			"mesh":6,
			"name":"IfcBuildingElementProxy/T03",
			"translation":[
				0,
				13.5,
				0
			]
		},
		{
			"mesh":7,
			"name":"IfcBuildingElementProxy/T04",
			"translation":[
				0,
				16.5,
				0
			]
		},
		{
			"mesh":8,
			"name":"IfcBuildingElementProxy/T05",
			"translation":[
				0,
				19.5,
				0
			]
		},
		{
			"mesh":9,
			"name":"IfcBuildingElementProxy/T06",
			"translation":[
				0,
				22.5,
				0
			]
		},
		{
			"mesh":10,
			"name":"IfcBuildingElementProxy/T07",
			"translation":[
				0,
				25.5,
				0
			]
		},
		{
			"mesh":11,
			"name":"IfcBuildingElementProxy/T08",
			"translation":[
				0,
				28.5,
				0
			]
		},
		{
			"mesh":12,
			"name":"IfcBuildingElementProxy/T09",
			"translation":[
				0,
				31.5,
				0
			]
		},
		{
			"mesh":13,
			"name":"IfcBuildingElementProxy/T10",
			"translation":[
				0,
				34.5,
				0
			]
		},
		{
			"mesh":14,
			"name":"IfcBuildingElementProxy/T11",
			"translation":[
				0,
				37.5,
				0
			]
		},
		{
			"mesh":15,
			"name":"IfcBuildingElementProxy/T12",
			"translation":[
				0,
				40.5,
				0
			]
		},
		{
			"mesh":16,
			"name":"IfcBuildingElementProxy/T13",
			"translation":[
				0,
				43.5,
				0
			]
		},
		{
			"mesh":17,
			"name":"IfcBuildingElementProxy/T14",
			"translation":[
				0,
				46.5,
				0
			]
		},
		{
			"mesh":18,
			"name":"IfcBuildingElementProxy/T15",
			"translation":[
				0,
				49.5,
				0
			]
		},
		{
			"mesh":19,
			"name":"IfcBuildingElementProxy/T16",
			"translation":[
				0,
				52.5,
				0
			]
		},
		{
			"mesh":20,
			"name":"IfcBuildingElementProxy/T17",
			"translation":[
				0,
				55.5,
				0
			]
		},
		{
			"mesh":21,
			"name":"IfcBuildingElementProxy/T18",
			"translation":[
				0,
				58.5,
				0
			]
		},
		{
			"mesh":22,
			"name":"IfcBuildingElementProxy/T19",
			"translation":[
				0,
				61.5,
				0
			]
		},
		{
			"mesh":23,
			"name":"IfcBuildingElementProxy/T20",
			"translation":[
				0,
				64.5,
				0
			]
		},
		{
			"mesh":24,
			"name":"IfcBuildingElementProxy/T21",
			"translation":[
				0,
				67.5,
				0
			]
		},
		{
			"mesh":25,
			"name":"IfcBuildingElementProxy/T22",
			"translation":[
				0,
				70.5,
				0
			]
		},
		{
			"mesh":26,
			"name":"IfcBuildingElementProxy/T23",
			"translation":[
				0,
				73.5,
				0
			]
		},
		{
			"mesh":27,
			"name":"IfcBuildingElementProxy/T24",
			"translation":[
				0,
				76.5,
				0
			]
		},
		{
			"mesh":28,
			"name":"IfcBuildingElementProxy/T25",
			"translation":[
				0,
				79.5,
				0
			]
		},
		{
			"mesh":29,
			"name":"IfcBuildingElementProxy/T26",
			"translation":[
				0,
				82.5,
				0
			]
		},
		{
			"mesh":30,
			"name":"IfcBuildingElementProxy/T27",
			"translation":[
				0,
				85.5,
				0
			]
		},
		{
			"mesh":31,
			"name":"IfcBuildingElementProxy/T28",
			"translation":[
				0,
				88.5,
				0
			]
		},
		{
			"mesh":32,
			"name":"IfcBuildingElementProxy/TER"
		},
		{
			"name":"IfcBuildingStorey/ATC",
			"translation":[
				0,
				91.5,
				0
			]
		},
		{
			"name":"IfcBuildingStorey/INT",
			"translation":[
				0,
				4,
				0
			]
		},
		{
			"name":"IfcBuildingStorey/SS01",
			"translation":[
				0,
				-3.5,
				0
			]
		},
		{
			"name":"IfcBuildingStorey/SS02",
			"translation":[
				0,
				-7,
				0
			]
		},
		{
			"name":"IfcBuildingStorey/T01",
			"translation":[
				0,
				7.5,
				0
			]
		},
		{
			"name":"IfcBuildingStorey/T02",
			"translation":[
				0,
				10.5,
				0
			]
		},
		{
			"name":"IfcBuildingStorey/T03",
			"translation":[
				0,
				13.5,
				0
			]
		},
		{
			"name":"IfcBuildingStorey/T04",
			"translation":[
				0,
				16.5,
				0
			]
		},
		{
			"name":"IfcBuildingStorey/T05",
			"translation":[
				0,
				19.5,
				0
			]
		},
		{
			"name":"IfcBuildingStorey/T06",
			"translation":[
				0,
				22.5,
				0
			]
		},
		{
			"name":"IfcBuildingStorey/T07",
			"translation":[
				0,
				25.5,
				0
			]
		},
		{
			"name":"IfcBuildingStorey/T08",
			"translation":[
				0,
				28.5,
				0
			]
		},
		{
			"name":"IfcBuildingStorey/T09",
			"translation":[
				0,
				31.5,
				0
			]
		},
		{
			"name":"IfcBuildingStorey/T10",
			"translation":[
				0,
				34.5,
				0
			]
		},
		{
			"name":"IfcBuildingStorey/T11",
			"translation":[
				0,
				37.5,
				0
			]
		},
		{
			"name":"IfcBuildingStorey/T12",
			"translation":[
				0,
				40.5,
				0
			]
		},
		{
			"name":"IfcBuildingStorey/T13",
			"translation":[
				0,
				43.5,
				0
			]
		},
		{
			"name":"IfcBuildingStorey/T14",
			"translation":[
				0,
				46.5,
				0
			]
		},
		{
			"name":"IfcBuildingStorey/T15",
			"translation":[
				0,
				49.5,
				0
			]
		},
		{
			"name":"IfcBuildingStorey/T16",
			"translation":[
				0,
				52.5,
				0
			]
		},
		{
			"name":"IfcBuildingStorey/T17",
			"translation":[
				0,
				55.5,
				0
			]
		},
		{
			"name":"IfcBuildingStorey/T18",
			"translation":[
				0,
				58.5,
				0
			]
		},
		{
			"name":"IfcBuildingStorey/T19",
			"translation":[
				0,
				61.5,
				0
			]
		},
		{
			"name":"IfcBuildingStorey/T20",
			"translation":[
				0,
				64.5,
				0
			]
		},
		{
			"name":"IfcBuildingStorey/T21",
			"translation":[
				0,
				67.5,
				0
			]
		},
		{
			"name":"IfcBuildingStorey/T22",
			"translation":[
				0,
				70.5,
				0
			]
		},
		{
			"name":"IfcBuildingStorey/T23",
			"translation":[
				0,
				73.5,
				0
			]
		},
		{
			"name":"IfcBuildingStorey/T24",
			"translation":[
				0,
				76.5,
				0
			]
		},
		{
			"name":"IfcBuildingStorey/T25",
			"translation":[
				0,
				79.5,
				0
			]
		},
		{
			"name":"IfcBuildingStorey/T26",
			"translation":[
				0,
				82.5,
				0
			]
		},
		{
			"name":"IfcBuildingStorey/T27",
			"translation":[
				0,
				85.5,
				0
			]
		},
		{
			"name":"IfcBuildingStorey/T28",
			"translation":[
				0,
				88.5,
				0
			]
		},
		{
			"name":"IfcBuildingStorey/TER"
		},
		{
			"name":"IfcProject/EDIFICIO_28P"
		},
		{
			"name":"IfcSite/SITE"
		}
	],
	"meshes":[
		{
			"name":"5/1032",
			"primitives":[
				{
					"attributes":{
						"POSITION":0,
						"NORMAL":1
					},
					"indices":2
				}
			]
		},
		{
			"name":"5/133",
			"primitives":[
				{
					"attributes":{
						"POSITION":3,
						"NORMAL":4
					},
					"indices":2
				}
			]
		},
		{
			"name":"5/71",
			"primitives":[
				{
					"attributes":{
						"POSITION":5,
						"NORMAL":6
					},
					"indices":2
				}
			]
		},
		{
			"name":"5/40",
			"primitives":[
				{
					"attributes":{
						"POSITION":7,
						"NORMAL":8
					},
					"indices":2
				}
			]
		},
		{
			"name":"5/164",
			"primitives":[
				{
					"attributes":{
						"POSITION":9,
						"NORMAL":10
					},
					"indices":2
				}
			]
		},
		{
			"name":"5/195",
			"primitives":[
				{
					"attributes":{
						"POSITION":11,
						"NORMAL":12
					},
					"indices":2
				}
			]
		},
		{
			"name":"5/226",
			"primitives":[
				{
					"attributes":{
						"POSITION":13,
						"NORMAL":14
					},
					"indices":2
				}
			]
		},
		{
			"name":"5/257",
			"primitives":[
				{
					"attributes":{
						"POSITION":15,
						"NORMAL":16
					},
					"indices":2
				}
			]
		},
		{
			"name":"5/288",
			"primitives":[
				{
					"attributes":{
						"POSITION":17,
						"NORMAL":18
					},
					"indices":2
				}
			]
		},
		{
			"name":"5/319",
			"primitives":[
				{
					"attributes":{
						"POSITION":19,
						"NORMAL":20
					},
					"indices":2
				}
			]
		},
		{
			"name":"5/350",
			"primitives":[
				{
					"attributes":{
						"POSITION":21,
						"NORMAL":22
					},
					"indices":2
				}
			]
		},
		{
			"name":"5/381",
			"primitives":[
				{
					"attributes":{
						"POSITION":23,
						"NORMAL":24
					},
					"indices":2
				}
			]
		},
		{
			"name":"5/412",
			"primitives":[
				{
					"attributes":{
						"POSITION":25,
						"NORMAL":26
					},
					"indices":2
				}
			]
		},
		{
			"name":"5/443",
			"primitives":[
				{
					"attributes":{
						"POSITION":27,
						"NORMAL":28
					},
					"indices":2
				}
			]
		},
		{
			"name":"5/474",
			"primitives":[
				{
					"attributes":{
						"POSITION":29,
						"NORMAL":30
					},
					"indices":2
				}
			]
		},
		{
			"name":"5/505",
			"primitives":[
				{
					"attributes":{
						"POSITION":31,
						"NORMAL":32
					},
					"indices":2
				}
			]
		},
		{
			"name":"5/536",
			"primitives":[
				{
					"attributes":{
						"POSITION":33,
						"NORMAL":34
					},
					"indices":2
				}
			]
		},
		{
			"name":"5/567",
			"primitives":[
				{
					"attributes":{
						"POSITION":35,
						"NORMAL":36
					},
					"indices":2
				}
			]
		},
		{
			"name":"5/598",
			"primitives":[
				{
					"attributes":{
						"POSITION":37,
						"NORMAL":38
					},
					"indices":2
				}
			]
		},
		{
			"name":"5/629",
			"primitives":[
				{
					"attributes":{
						"POSITION":39,
						"NORMAL":40
					},
					"indices":2
				}
			]
		},
		{
			"name":"5/660",
			"primitives":[
				{
					"attributes":{
						"POSITION":41,
						"NORMAL":42
					},
					"indices":2
				}
			]
		},
		{
			"name":"5/691",
			"primitives":[
				{
					"attributes":{
						"POSITION":43,
						"NORMAL":44
					},
					"indices":2
				}
			]
		},
		{
			"name":"5/722",
			"primitives":[
				{
					"attributes":{
						"POSITION":45,
						"NORMAL":46
					},
					"indices":2
				}
			]
		},
		{
			"name":"5/753",
			"primitives":[
				{
					"attributes":{
						"POSITION":47,
						"NORMAL":48
					},
					"indices":2
				}
			]
		},
		{
			"name":"5/784",
			"primitives":[
				{
					"attributes":{
						"POSITION":49,
						"NORMAL":50
					},
					"indices":2
				}
			]
		},
		{
			"name":"5/815",
			"primitives":[
				{
					"attributes":{
						"POSITION":51,
						"NORMAL":52
					},
					"indices":2
				}
			]
		},
		{
			"name":"5/846",
			"primitives":[
				{
					"attributes":{
						"POSITION":53,
						"NORMAL":54
					},
					"indices":2
				}
			]
		},
		{
			"name":"5/877",
			"primitives":[
				{
					"attributes":{
						"POSITION":55,
						"NORMAL":56
					},
					"indices":2
				}
			]
		},
		{
			"name":"5/908",
			"primitives":[
				{
					"attributes":{
						"POSITION":57,
						"NORMAL":58
					},
					"indices":2
				}
			]
		},
		{
			"name":"5/939",
			"primitives":[
				{
					"attributes":{
						"POSITION":59,
						"NORMAL":60
					},
					"indices":2
				}
			]
		},
		{
			"name":"5/970",
			"primitives":[
				{
					"attributes":{
						"POSITION":61,
						"NORMAL":62
					},
					"indices":2
				}
			]
		},
		{
			"name":"5/1001",
			"primitives":[
				{
					"attributes":{
						"POSITION":63,
						"NORMAL":64
					},
					"indices":2
				}
			]
		},
		{
			"name":"5/102",
			"primitives":[
				{
					"attributes":{
						"POSITION":65,
						"NORMAL":66
					},
					"indices":2
				}
			]
		}
	],
	"accessors":[
		{
			"bufferView":0,
			"componentType":5126,
			"count":24,
			"max":[
				12,
				3,
				7
			],
			"min":[
				-12,
				0,
				-7
			],
			"type":"VEC3"
		},
		{
			"bufferView":1,
			"componentType":5126,
			"count":24,
			"type":"VEC3"
		},
		{
			"bufferView":2,
			"componentType":5123,
			"count":36,
			"type":"SCALAR"
		},
		{
			"bufferView":3,
			"componentType":5126,
			"count":24,
			"max":[
				18,
				3.5,
				12
			],
			"min":[
				-18,
				0,
				-12
			],
			"type":"VEC3"
		},
		{
			"bufferView":4,
			"componentType":5126,
			"count":24,
			"type":"VEC3"
		},
		{
			"bufferView":5,
			"componentType":5126,
			"count":24,
			"max":[
				18,
				3.5,
				12
			],
			"min":[
				-18,
				0,
				-12
			],
			"type":"VEC3"
		},
		{
			"bufferView":6,
			"componentType":5126,
			"count":24,
			"type":"VEC3"
		},
		{
			"bufferView":7,
			"componentType":5126,
			"count":24,
			"max":[
				18,
				3.5,
				12
			],
			"min":[
				-18,
				0,
				-12
			],
			"type":"VEC3"
		},
		{
			"bufferView":8,
			"componentType":5126,
			"count":24,
			"type":"VEC3"
		},
		{
			"bufferView":9,
			"componentType":5126,
			"count":24,
			"max":[
				14,
				3,
				9
			],
			"min":[
				-14,
				0,
				-9
			],
			"type":"VEC3"
		},
		{
			"bufferView":10,
			"componentType":5126,
			"count":24,
			"type":"VEC3"
		},
		{
			"bufferView":11,
			"componentType":5126,
			"count":24,
			"max":[
				14,
				3,
				9
			],
			"min":[
				-14,
				0,
				-9
			],
			"type":"VEC3"
		},
		{
			"bufferView":12,
			"componentType":5126,
			"count":24,
			"type":"VEC3"
		},
		{
			"bufferView":13,
			"componentType":5126,
			"count":24,
			"max":[
				14,
				3,
				9
			],
			"min":[
				-14,
				0,
				-9
			],
			"type":"VEC3"
		},
		{
			"bufferView":14,
			"componentType":5126,
			"count":24,
			"type":"VEC3"
		},
		{
			"bufferView":15,
			"componentType":5126,
			"count":24,
			"max":[
				14,
				3,
				9
			],
			"min":[
				-14,
				0,
				-9
			],
			"type":"VEC3"
		},
		{
			"bufferView":16,
			"componentType":5126,
			"count":24,
			"type":"VEC3"
		},
		{
			"bufferView":17,
			"componentType":5126,
			"count":24,
			"max":[
				14,
				3,
				9
			],
			"min":[
				-14,
				0,
				-9
			],
			"type":"VEC3"
		},
		{
			"bufferView":18,
			"componentType":5126,
			"count":24,
			"type":"VEC3"
		},
		{
			"bufferView":19,
			"componentType":5126,
			"count":24,
			"max":[
				14,
				3,
				9
			],
			"min":[
				-14,
				0,
				-9
			],
			"type":"VEC3"
		},
		{
			"bufferView":20,
			"componentType":5126,
			"count":24,
			"type":"VEC3"
		},
		{
			"bufferView":21,
			"componentType":5126,
			"count":24,
			"max":[
				14,
				3,
				9
			],
			"min":[
				-14,
				0,
				-9
			],
			"type":"VEC3"
		},
		{
			"bufferView":22,
			"componentType":5126,
			"count":24,
			"type":"VEC3"
		},
		{
			"bufferView":23,
			"componentType":5126,
			"count":24,
			"max":[
				14,
				3,
				9
			],
			"min":[
				-14,
				0,
				-9
			],
			"type":"VEC3"
		},
		{
			"bufferView":24,
			"componentType":5126,
			"count":24,
			"type":"VEC3"
		},
		{
			"bufferView":25,
			"componentType":5126,
			"count":24,
			"max":[
				14,
				3,
				9
			],
			"min":[
				-14,
				0,
				-9
			],
			"type":"VEC3"
		},
		{
			"bufferView":26,
			"componentType":5126,
			"count":24,
			"type":"VEC3"
		},
		{
			"bufferView":27,
			"componentType":5126,
			"count":24,
			"max":[
				14,
				3,
				9
			],
			"min":[
				-14,
				0,
				-9
			],
			"type":"VEC3"
		},
		{
			"bufferView":28,
			"componentType":5126,
			"count":24,
			"type":"VEC3"
		},
		{
			"bufferView":29,
			"componentType":5126,
			"count":24,
			"max":[
				14,
				3,
				9
			],
			"min":[
				-14,
				0,
				-9
			],
			"type":"VEC3"
		},
		{
			"bufferView":30,
			"componentType":5126,
			"count":24,
			"type":"VEC3"
		},
		{
			"bufferView":31,
			"componentType":5126,
			"count":24,
			"max":[
				14,
				3,
				9
			],
			"min":[
				-14,
				0,
				-9
			],
			"type":"VEC3"
		},
		{
			"bufferView":32,
			"componentType":5126,
			"count":24,
			"type":"VEC3"
		},
		{
			"bufferView":33,
			"componentType":5126,
			"count":24,
			"max":[
				14,
				3,
				9
			],
			"min":[
				-14,
				0,
				-9
			],
			"type":"VEC3"
		},
		{
			"bufferView":34,
			"componentType":5126,
			"count":24,
			"type":"VEC3"
		},
		{
			"bufferView":35,
			"componentType":5126,
			"count":24,
			"max":[
				14,
				3,
				9
			],
			"min":[
				-14,
				0,
				-9
			],
			"type":"VEC3"
		},
		{
			"bufferView":36,
			"componentType":5126,
			"count":24,
			"type":"VEC3"
		},
		{
			"bufferView":37,
			"componentType":5126,
			"count":24,
			"max":[
				14,
				3,
				9
			],
			"min":[
				-14,
				0,
				-9
			],
			"type":"VEC3"
		},
		{
			"bufferView":38,
			"componentType":5126,
			"count":24,
			"type":"VEC3"
		},
		{
			"bufferView":39,
			"componentType":5126,
			"count":24,
			"max":[
				14,
				3,
				9
			],
			"min":[
				-14,
				0,
				-9
			],
			"type":"VEC3"
		},
		{
			"bufferView":40,
			"componentType":5126,
			"count":24,
			"type":"VEC3"
		},
		{
			"bufferView":41,
			"componentType":5126,
			"count":24,
			"max":[
				14,
				3,
				9
			],
			"min":[
				-14,
				0,
				-9
			],
			"type":"VEC3"
		},
		{
			"bufferView":42,
			"componentType":5126,
			"count":24,
			"type":"VEC3"
		},
		{
			"bufferView":43,
			"componentType":5126,
			"count":24,
			"max":[
				14,
				3,
				9
			],
			"min":[
				-14,
				0,
				-9
			],
			"type":"VEC3"
		},
		{
			"bufferView":44,
			"componentType":5126,
			"count":24,
			"type":"VEC3"
		},
		{
			"bufferView":45,
			"componentType":5126,
			"count":24,
			"max":[
				14,
				3,
				9
			],
			"min":[
				-14,
				0,
				-9
			],
			"type":"VEC3"
		},
		{
			"bufferView":46,
			"componentType":5126,
			"count":24,
			"type":"VEC3"
		},
		{
			"bufferView":47,
			"componentType":5126,
			"count":24,
			"max":[
				14,
				3,
				9
			],
			"min":[
				-14,
				0,
				-9
			],
			"type":"VEC3"
		},
		{
			"bufferView":48,
			"componentType":5126,
			"count":24,
			"type":"VEC3"
		},
		{
			"bufferView":49,
			"componentType":5126,
			"count":24,
			"max":[
				14,
				3,
				9
			],
			"min":[
				-14,
				0,
				-9
			],
			"type":"VEC3"
		},
		{
			"bufferView":50,
			"componentType":5126,
			"count":24,
			"type":"VEC3"
		},
		{
			"bufferView":51,
			"componentType":5126,
			"count":24,
			"max":[
				14,
				3,
				9
			],
			"min":[
				-14,
				0,
				-9
			],
			"type":"VEC3"
		},
		{
			"bufferView":52,
			"componentType":5126,
			"count":24,
			"type":"VEC3"
		},
		{
			"bufferView":53,
			"componentType":5126,
			"count":24,
			"max":[
				14,
				3,
				9
			],
			"min":[
				-14,
				0,
				-9
			],
			"type":"VEC3"
		},
		{
			"bufferView":54,
			"componentType":5126,
			"count":24,
			"type":"VEC3"
		},
		{
			"bufferView":55,
			"componentType":5126,
			"count":24,
			"max":[
				14,
				3,
				9
			],
			"min":[
				-14,
				0,
				-9
			],
			"type":"VEC3"
		},
		{
			"bufferView":56,
			"componentType":5126,
			"count":24,
			"type":"VEC3"
		},
		{
			"bufferView":57,
			"componentType":5126,
			"count":24,
			"max":[
				14,
				3,
				9
			],
			"min":[
				-14,
				0,
				-9
			],
			"type":"VEC3"
		},
		{
			"bufferView":58,
			"componentType":5126,
			"count":24,
			"type":"VEC3"
		},
		{
			"bufferView":59,
			"componentType":5126,
			"count":24,
			"max":[
				14,
				3,
				9
			],
			"min":[
				-14,
				0,
				-9
			],
			"type":"VEC3"
		},
		{
			"bufferView":60,
			"componentType":5126,
			"count":24,
			"type":"VEC3"
		},
		{
			"bufferView":61,
			"componentType":5126,
			"count":24,
			"max":[
				14,
				3,
				9
			],
			"min":[
				-14,
				0,
				-9
			],
			"type":"VEC3"
		},
		{
			"bufferView":62,
			"componentType":5126,
			"count":24,
			"type":"VEC3"
		},
		{
			"bufferView":63,
			"componentType":5126,
			"count":24,
			"max":[
				14,
				3,
				9
			],
			"min":[
				-14,
				0,
				-9
			],
			"type":"VEC3"
		},
		{
			"bufferView":64,
			"componentType":5126,
			"count":24,
			"type":"VEC3"
		},
		{
			"bufferView":65,
			"componentType":5126,
			"count":24,
			"max":[
				18,
				4,
				12
			],
			"min":[
				-18,
				0,
				-12
			],
			"type":"VEC3"
		},
		{
			"bufferView":66,
			"componentType":5126,
			"count":24,
			"type":"VEC3"
		}
	],
	"bufferViews":[
		{
			"buffer":0,
			"byteLength":288,
			"byteOffset":0,
			"target":34962
		},
		{
			"buffer":0,
			"byteLength":288,
			"byteOffset":288,
			"target":34962
		},
		{
			"buffer":0,
			"byteLength":72,
			"byteOffset":576,
			"target":34963
		},
		{
			"buffer":0,
			"byteLength":288,
			"byteOffset":648,
			"target":34962
		},
		{
			"buffer":0,
			"byteLength":288,
			"byteOffset":936,
			"target":34962
		},
		{
			"buffer":0,
			"byteLength":288,
			"byteOffset":1224,
			"target":34962
		},
		{
			"buffer":0,
			"byteLength":288,
			"byteOffset":1512,
			"target":34962
		},
		{
			"buffer":0,
			"byteLength":288,
			"byteOffset":1800,
			"target":34962
		},
		{
			"buffer":0,
			"byteLength":288,
			"byteOffset":2088,
			"target":34962
		},
		{
			"buffer":0,
			"byteLength":288,
			"byteOffset":2376,
			"target":34962
		},
		{
			"buffer":0,
			"byteLength":288,
			"byteOffset":2664,
			"target":34962
		},
		{
			"buffer":0,
			"byteLength":288,
			"byteOffset":2952,
			"target":34962
		},
		{
			"buffer":0,
			"byteLength":288,
			"byteOffset":3240,
			"target":34962
		},
		{
			"buffer":0,
			"byteLength":288,
			"byteOffset":3528,
			"target":34962
		},
		{
			"buffer":0,
			"byteLength":288,
			"byteOffset":3816,
			"target":34962
		},
		{
			"buffer":0,
			"byteLength":288,
			"byteOffset":4104,
			"target":34962
		},
		{
			"buffer":0,
			"byteLength":288,
			"byteOffset":4392,
			"target":34962
		},
		{
			"buffer":0,
			"byteLength":288,
			"byteOffset":4680,
			"target":34962
		},
		{
			"buffer":0,
			"byteLength":288,
			"byteOffset":4968,
			"target":34962
		},
		{
			"buffer":0,
			"byteLength":288,
			"byteOffset":5256,
			"target":34962
		},
		{
			"buffer":0,
			"byteLength":288,
			"byteOffset":5544,
			"target":34962
		},
		{
			"buffer":0,
			"byteLength":288,
			"byteOffset":5832,
			"target":34962
		},
		{
			"buffer":0,
			"byteLength":288,
			"byteOffset":6120,
			"target":34962
		},
		{
			"buffer":0,
			"byteLength":288,
			"byteOffset":6408,
			"target":34962
		},
		{
			"buffer":0,
			"byteLength":288,
			"byteOffset":6696,
			"target":34962
		},
		{
			"buffer":0,
			"byteLength":288,
			"byteOffset":6984,
			"target":34962
		},
		{
			"buffer":0,
			"byteLength":288,
			"byteOffset":7272,
			"target":34962
		},
		{
			"buffer":0,
			"byteLength":288,
			"byteOffset":7560,
			"target":34962
		},
		{
			"buffer":0,
			"byteLength":288,
			"byteOffset":7848,
			"target":34962
		},
		{
			"buffer":0,
			"byteLength":288,
			"byteOffset":8136,
			"target":34962
		},
		{
			"buffer":0,
			"byteLength":288,
			"byteOffset":8424,
			"target":34962
		},
		{
			"buffer":0,
			"byteLength":288,
			"byteOffset":8712,
			"target":34962
		},
		{
			"buffer":0,
			"byteLength":288,
			"byteOffset":9000,
			"target":34962
		},
		{
			"buffer":0,
			"byteLength":288,
			"byteOffset":9288,
			"target":34962
		},
		{
			"buffer":0,
			"byteLength":288,
			"byteOffset":9576,
			"target":34962
		},
		{
			"buffer":0,
			"byteLength":288,
			"byteOffset":9864,
			"target":34962
		},
		{
			"buffer":0,
			"byteLength":288,
			"byteOffset":10152,
			"target":34962
		},
		{
			"buffer":0,
			"byteLength":288,
			"byteOffset":10440,
			"target":34962
		},
		{
			"buffer":0,
			"byteLength":288,
			"byteOffset":10728,
			"target":34962
		},
		{
			"buffer":0,
			"byteLength":288,
			"byteOffset":11016,
			"target":34962
		},
		{
			"buffer":0,
			"byteLength":288,
			"byteOffset":11304,
			"target":34962
		},
		{
			"buffer":0,
			"byteLength":288,
			"byteOffset":11592,
			"target":34962
		},
		{
			"buffer":0,
			"byteLength":288,
			"byteOffset":11880,
			"target":34962
		},
		{
			"buffer":0,
			"byteLength":288,
			"byteOffset":12168,
			"target":34962
		},
		{
			"buffer":0,
			"byteLength":288,
			"byteOffset":12456,
			"target":34962
		},
		{
			"buffer":0,
			"byteLength":288,
			"byteOffset":12744,
			"target":34962
		},
		{
			"buffer":0,
			"byteLength":288,
			"byteOffset":13032,
			"target":34962
		},
		{
			"buffer":0,
			"byteLength":288,
			"byteOffset":13320,
			"target":34962
		},
		{
			"buffer":0,
			"byteLength":288,
			"byteOffset":13608,
			"target":34962
		},
		{
			"buffer":0,
			"byteLength":288,
			"byteOffset":13896,
			"target":34962
		},
		{
			"buffer":0,
			"byteLength":288,
			"byteOffset":14184,
			"target":34962
		},
		{
			"buffer":0,
			"byteLength":288,
			"byteOffset":14472,
			"target":34962
		},
		{
			"buffer":0,
			"byteLength":288,
			"byteOffset":14760,
			"target":34962
		},
		{
			"buffer":0,
			"byteLength":288,
			"byteOffset":15048,
			"target":34962
		},
		{
			"buffer":0,
			"byteLength":288,
			"byteOffset":15336,
			"target":34962
		},
		{
			"buffer":0,
			"byteLength":288,
			"byteOffset":15624,
			"target":34962
		},
		{
			"buffer":0,
			"byteLength":288,
			"byteOffset":15912,
			"target":34962
		},
		{
			"buffer":0,
			"byteLength":288,
			"byteOffset":16200,
			"target":34962
		},
		{
			"buffer":0,
			"byteLength":288,
			"byteOffset":16488,
			"target":34962
		},
		{
			"buffer":0,
			"byteLength":288,
			"byteOffset":16776,
			"target":34962
		},
		{
			"buffer":0,
			"byteLength":288,
			"byteOffset":17064,
			"target":34962
		},
		{
			"buffer":0,
			"byteLength":288,
			"byteOffset":17352,
			"target":34962
		},
		{
			"buffer":0,
			"byteLength":288,
			"byteOffset":17640,
			"target":34962
		},
		{
			"buffer":0,
			"byteLength":288,
			"byteOffset":17928,
			"target":34962
		},
		{
			"buffer":0,
			"byteLength":288,
			"byteOffset":18216,
			"target":34962
		},
		{
			"buffer":0,
			"byteLength":288,
			"byteOffset":18504,
			"target":34962
		},
		{
			"buffer":0,
			"byteLength":288,
			"byteOffset":18792,
			"target":34962
		}
	],
	"buffers":[
		{
			"byteLength":19080,
			"uri":"projeto28.bin"
		}
	]
}
